<svg width="18" height="19" viewBox="0 0 20 21" fill="none" xmlns="http://www.w3.org/2000/svg">
<g clip-path="url(#clip0_500_16)">
<path d="M0.833374 10.4999C0.833374 10.4999 4.16671 3.83325 10 3.83325C15.8334 3.83325 19.1667 10.4999 19.1667 10.4999C19.1667 10.4999 15.8334 17.1666 10 17.1666C4.16671 17.1666 0.833374 10.4999 0.833374 10.4999Z" fill="black" stroke="black" stroke-width="2" stroke-linecap="round" stroke-linejoin="round"/>
<path d="M9.99996 13.8334C11.8409 13.8334 13.3333 12.341 13.3333 10.5001C13.3333 8.65913 11.8409 7.16675 9.99996 7.16675C8.15901 7.16675 6.66663 8.65913 6.66663 10.5001C6.66663 12.341 8.15901 13.8334 9.99996 13.8334Z" fill="black" stroke="white" stroke-linecap="round" stroke-linejoin="round"/>
<path d="M0.833374 1.33325L19.1667 19.6666" stroke="black" stroke-width="2" stroke-linecap="round" stroke-linejoin="round"/>
</g>
<defs>
<clipPath id="clip0_500_16">
<rect width="20" height="20" fill="white" transform="translate(0 0.5)"/>
</clipPath>
</defs>
</svg>
